<svg xmlns="http://www.w3.org/2000/svg" viewBox="0 0 500 500" width="100" height="100"><circle cx="266.5" cy="541.5" r="41.5" fill="#a7d8ea" stroke="transparent" style="transform-box:fill-box" transform="matrix(.58034 .716479 -.948243 .812767 -196.218826 -213.188629)" transform-origin="50% 50%"/><circle cx="266.5" cy="541.5" r="41.5" fill="#a7d8ea" stroke="transparent" transform="matrix(.58034 .716479 -.948243 .812767 -22.606911 -215.519775)" transform-origin="266.5px 541.5px"/><path fill="#a7d8ea" stroke="#a7d8ea" stroke-width="6" d="M112.438 309.193 141.45 19.155"/><circle cx="266.5" cy="541.5" r="41.5" fill="#a7d8ea" stroke="transparent" transform="matrix(.58034 .716479 -.948243 .812767 144.205521 -218.317566)" transform-origin="266.5px 541.5px"/><path fill="#a7d8ea" stroke="#a7d8ea" stroke-width="6" d="m452.407 309.193 29.012-283.51M286.503 307.328l29.011-284.442"/><path fill="#a7d8ea" stroke="#a7d8ea" stroke-width="6" d="m309.142 223.143 1.865-342.693" style="transform-box:fill-box" transform="matrix(0 -1 1 0 0 .000002)" transform-origin="50% 50%"/><path fill="#a7d8ea" stroke="#a7d8ea" stroke-width="17" d="M485.046 21.021H137.822" transform-origin="311.435px 21.021px"/><path fill="#ee1212" stroke="#100f0f" stroke-width="2" d="M130.281 377.028q-.056-2.317 1.572-3.779 1.628-1.462 4-1.462 2.704 0 4.745 3.089 2.814 4.194 5.021 5.683 4.69 3.09 13.629 3.09 8.552 0 15.89-3.696 9.38-4.746 9.38-13.187 0-6.953-7.89-10.98-6.676-3.477-16.497-3.752-8.718-.331-14.843-3.808-7.835-4.469-7.835-12.8 0-9.822 11.146-17.932 10.649-7.67 22.015-7.67 5.352 0 12.084 1.821 8.938 2.372 8.938 6.069 0 4.856-4.966 4.856-2.207 0-7.724-1.187-5.518-1.186-8.553-1.131-8.607.111-14.621 4.249-6.18 4.248-6.18 10.318 0 4.579 8.166 6.455 3.035.718 11.753 1.325 12.635.938 19.752 7.945 6.511 6.4 6.511 15.615 0 13.131-12.138 20.966-10.539 6.787-24.443 6.787-10.098 0-18.484-3.862-10.263-4.745-10.428-13.022Zm115.533-33.271q-1.158 0-2.731-.11-1.572-.11-2.731-.11-1.269 0-7.504.827l1.048 32.609.056 2.428.055 2.814q.221 12.083-5.794 12.083-2.207 0-3.834-1.434-1.628-1.435-1.628-3.587 0-2.096.165-6.29.166-4.193.166-6.29l-1.104-32.222q-4.027-.166-12.249-.938-4.91-.663-4.91-5.463 0-2.428 1.49-4.028 1.489-1.6 3.807-1.6l11.587.938q0-2.814-.249-7.531-.248-4.718-.248-6.815 0-2.317 1.6-3.834 1.6-1.518 3.918-1.518 4.965 0 5.793 8.111.166 2.042.166 4.911l-.111 3.2-.055 3.421q6.842-.883 7.835-.883 5.738 0 7.504.552 3.366 1.103 3.366 5.186 0 2.428-1.518 4.001-1.517 1.572-3.89 1.572Zm59.423 50.652q-1.048 0-3.807-2.428-2.483-2.262-3.697-4.028-5.297 2.869-9.325 4.331-4.027 1.462-6.731 1.462-12.911 0-18.815-7.283-5.573-6.842-5.573-20.967 0-13.352 9.187-22.842 9.187-9.491 21.932-9.491 4.801 0 10.76 2.483 7.504 3.09 7.504 7.449 0 1.49-1.104 2.649-.552 2.096-.855 6.897-.304 4.8-.359 12.304-.055 6.842.938 10.814.552 2.428 3.476 9.711.387.993 1.269 2.924l.331.938q0 2.207-1.544 3.642-1.545 1.435-3.587 1.435Zm-11.476-38.348q0-2.372.303-5.159.303-2.786.91-5.931-2.041-1.048-3.503-1.545-1.462-.496-2.345-.496-8.552 0-14.76 6.979-6.207 6.98-6.207 16.084 0 9.049 3.2 13.573 3.2 4.525 9.601 4.525 5.297 0 8.993-1.931 1.987-1.049 5.573-4.194-1.765-14.621-1.765-21.905Zm69.129-6.069q-.387 6.897-5.518 6.897-4.745 0-4.745-5.462 0-1.049-.166-3.863l-.165-4.634q-8.718 1.048-13.96 4.91-4.91 3.587-8.166 10.815l.111 30.236q0 5.573-5.463 5.573-4.855 0-4.855-5.573v-38.733q0-1.821.138-5.463.138-3.641.138-5.462 0-5.573 4.855-5.573 5.408 0 5.463 9.159 10.593-10.207 23.505-10.207 4.469 0 6.676 3.365 2.207 3.366 2.207 10.153 0 2.869-.055 3.862Zm48.277-6.235q-1.159 0-2.731-.11-1.573-.11-2.731-.11-1.269 0-7.504.827l1.048 32.609.055 2.428.056 2.814q.22 12.083-5.794 12.083-2.207 0-3.835-1.434-1.627-1.435-1.627-3.587 0-2.096.165-6.29.166-4.193.166-6.29l-1.104-32.222q-4.028-.166-12.249-.938-4.91-.663-4.91-5.463 0-2.428 1.489-4.028 1.49-1.6 3.807-1.6l11.587.938q0-2.814-.248-7.531-.248-4.718-.248-6.815 0-2.317 1.6-3.834 1.6-1.518 3.917-1.518 4.966 0 5.794 8.111.165 2.042.165 4.911l-.11 3.2-.055 3.421q6.842-.883 7.835-.883 5.738 0 7.504.552 3.365 1.103 3.365 5.186 0 2.428-1.517 4.001-1.517 1.572-3.89 1.572ZM203.223 426.024q-.828 2.318-.828 6.787 0 1.655.111 4.911.11 3.255.11 4.91 0 5.518-.966 16.443-.965 10.924-.965 16.442 0 4.193.607 12.58t.607 12.635q0 2.263-1.518 3.807-1.517 1.545-3.779 1.545-2.207 0-3.752-1.545-1.545-1.544-1.545-3.807 0-4.248-.607-12.635t-.607-12.58q0-4.028.276-8.166-9.435.165-23.339 2.814l-23.174 4.524q0 4.966-.993 14.098-.994 9.131-.994 14.152 0 2.263-1.517 3.835-1.517 1.573-3.779 1.573-2.263 0-3.78-1.573-1.517-1.572-1.517-3.835 0-5.848.965-17.463.966-11.614.966-17.463 0-3.035-.221-9.159-.221-6.125-.221-9.214 0-4.359.552-13.105.552-8.745.552-13.104 0-2.317 1.517-3.862 1.518-1.545 3.78-1.545 2.262 0 3.779 1.545 1.518 1.545 1.518 3.862 0 4.414-.58 13.215-.579 8.8-.579 13.214l.331 13.96 23.671-4.47q14.18-2.648 23.891-2.758.607-7.89.607-23.781 0-4.193 1.379-8.497 1.821-5.904 5.131-5.904 2.097 0 3.752 1.517 1.656 1.518 1.656 3.835 0 .828-.497 2.262Zm39.885 80.281q-12.47 0-20.194-6.235-8.442-6.897-8.442-19.311 0-14.346 6.952-24.057 7.559-10.594 20.194-10.594 9.16 0 14.953 3.09 7.118 3.807 7.118 11.697 0 5.518-6.235 10.042-2.759 1.987-11.697 6.18l-21.077 9.987q3.089 4.579 7.697 6.897 4.607 2.317 10.731 2.317 3.807 0 8.939-1.434 6.51-1.821 8.386-4.773 1.876-2.952 4.028-2.952 1.931 0 3.449 1.462 1.517 1.462 1.517 3.394 0 6.124-9.876 10.538-8.442 3.752-16.443 3.752Zm-1.49-50.265q-6.731 0-11.2 5.214-4.469 5.214-6.676 15.698l16.938-8.056q9.987-4.856 14.236-8.442-4.745-4.414-13.298-4.414Zm80.555 6.952q-.386 6.897-5.518 6.897-4.745 0-4.745-5.462 0-1.049-.165-3.863l-.166-4.634q-8.718 1.048-13.959 4.91-4.911 3.587-8.166 10.815l.11 30.236q0 5.573-5.462 5.573-4.856 0-4.856-5.573v-38.733q0-1.821.138-5.463.138-3.641.138-5.462 0-5.573 4.855-5.573 5.408 0 5.463 9.159 10.594-10.207 23.505-10.207 4.469 0 6.676 3.365 2.207 3.366 2.207 10.153 0 2.869-.055 3.862Zm37.132 43.313q-12.47 0-20.195-6.235-8.441-6.897-8.441-19.311 0-14.346 6.952-24.057 7.559-10.594 20.194-10.594 9.159 0 14.953 3.09 7.117 3.807 7.117 11.697 0 5.518-6.235 10.042-2.758 1.987-11.697 6.18l-21.077 9.987q3.09 4.579 7.697 6.897 4.607 2.317 10.732 2.317 3.807 0 8.938-1.434 6.511-1.821 8.387-4.773 1.876-2.952 4.028-2.952 1.931 0 3.448 1.462 1.518 1.462 1.518 3.394 0 6.124-9.877 10.538-8.442 3.752-16.442 3.752Zm-1.49-50.265q-6.731 0-11.201 5.214-4.469 5.214-6.676 15.698l16.939-8.056q9.987-4.856 14.235-8.442-4.745-4.414-13.297-4.414Zm48.221-35.92v61.411q0 4.911-4.91 4.911-4.911 0-4.911-4.911 0-2.262-.138-6.759t-.138-6.704q0-8 .138-23.974.138-15.973.138-23.974 0-4.91 4.911-4.91 4.91 0 4.91 4.91Zm.056 82.378q0 1.986-1.573 3.448-1.572 1.463-3.559 1.463-2.207 0-4.414-2.87-2.152-2.703-2.152-4.965 0-1.987 1.573-3.421 1.572-1.435 3.614-1.435 2.152 0 4.414 2.869 2.097 2.704 2.097 4.911Z" style="text-wrap-mode:nowrap" transform="matrix(1.394334 0 0 1.434334 -96.077911 -395.850067)"/></svg>