<svg xmlns="http://www.w3.org/2000/svg" viewBox="0 0 500 500"><circle cx="460.5" cy="559" r="299.5" fill="rgba(192,126,84,.392)" transform="matrix(.6502 0 0 .5753 -44.86346 -28.3535)"/><circle cx="652.5" cy="708" r="74.5" fill="#fff" stroke="#fff" transform="matrix(1.056 0 0 1.0298 -430.92664 -290.24445)"/><path fill="#88470d" stroke="#000" d="M210.013 180.104c-.591 2.366-7.469 14.638-7.152 14.955 2.181 2.181 6.884 2.294 9.753 3.251 1.275.425 4.538 4.163 5.852 3.901 2.859-.572 6.948-9.957 5.201-11.704-2.592-2.592-8.952 2.026-10.403 1.301-1.24-.62-1.304-7.479-1.951-7.803-.866-.433-3.57-1.3-2.6-1.3M360.858 238.622c-1.09 1.635-5.779 8.115-4.551 9.753 1.96 2.613 14.645 11.115 18.205 10.403.853-.171 14.119-13.5 9.753-14.955-2.944-.981-9.151 1.702-11.703 0-1.128-.752-1.58-3.53-2.601-4.551-1.252-1.253-6.535 1.3-8.452 1.3M282.835 274.382c-2.38 3.571-7.35 6.446-8.453 9.753-.493 1.48 2.21 4.161 2.601 4.552 1.665 1.664 1.821 3.771 3.901 5.851 3.383 3.384 13.456-1.554 14.955-4.551.876-1.752 3.895-3.264 2.601-5.852-1.863-3.725-15.72-2.181-16.905-4.551-.327-.654 1.95-2.935 1.95-3.251"/><circle cx="570.5" cy="619.5" r="341.5" fill="none" stroke="#ec2525" stroke-width="16.439" transform="matrix(.6502 0 0 .5664 -117.68532 -60.5862)"/><path fill="#88470d" stroke="#000" d="M372.961 285.516c-.591 2.366-7.469 14.638-7.152 14.955 2.181 2.181 6.884 2.294 9.753 3.251 1.275.425 4.538 4.163 5.852 3.901 2.859-.572 6.948-9.957 5.201-11.704-2.592-2.592-8.952 2.026-10.403 1.301-1.24-.62-1.304-7.479-1.951-7.803-.866-.433-3.57-1.3-2.6-1.3" style="transform-box:fill-box" transform="rotate(180 0 .00003)" transform-origin="50% 50%"/><path fill="#88470d" stroke="#000" d="M155.796 254.956c-1.505 4.516-10.8 7.136-8.452 13.004 2.851 7.129 9.972 5.852 16.905 5.852 1.808 0 6.26.892 7.802-.65 1.263-1.263-3.354-4.757-3.901-5.852-.484-.967-4.138-8.216-3.251-9.103.376-.375 3.251.651 3.251.651s-10.16-1.708-11.704-3.251"/><path fill="#88470d" stroke="#000" d="M320.945 193.839c-1.09 1.635-5.779 8.115-4.551 9.753 1.96 2.613 14.645 11.115 18.205 10.403.853-.171 14.119-13.5 9.753-14.955-2.944-.981-9.151 1.702-11.703 0-1.128-.752-1.58-3.53-2.601-4.551-1.252-1.253-6.535 1.3-8.452 1.3" style="transform-box:fill-box" transform="rotate(-90 0 0)" transform-origin="50% 50%"/><path fill="#88470d" stroke="#000" d="M242.922 229.599c-2.38 3.571-7.35 6.446-8.453 9.753-.493 1.48 2.21 4.161 2.601 4.552 1.665 1.664 1.821 3.771 3.901 5.851 3.383 3.384 13.456-1.554 14.955-4.551.876-1.752 3.895-3.264 2.601-5.852-1.863-3.725-15.72-2.181-16.905-4.551-.327-.654 1.95-2.935 1.95-3.251"/><path fill="#88470d" stroke="#000" d="M310.99102-216.595c4.516 1.505 7.136 10.8 13.004 8.452 7.129-2.851 5.852-9.972 5.852-16.905 0-1.808.892-6.26-.65-7.802-1.263-1.263-4.757 3.354-5.852 3.901-.967.484-8.216 4.138-9.103 3.251-.375-.376.651-3.251.651-3.251s-1.708 10.16-3.251 11.704" transform-origin="220.416px 320.547px"/><path fill="#88470d" stroke="#000" d="M-371.89797-362.46303c1.09-1.635 5.779-8.115 4.551-9.753-1.96-2.613-14.645-11.115-18.205-10.403-.853.171-14.119 13.5-9.753 14.955 2.944.981 9.151-1.702 11.703 0 1.128.752 1.58 3.53 2.601 4.551 1.252 1.253 6.535-1.3 8.452-1.3" transform-origin="381.664px 372.562px"/><path fill="#88470d" stroke="#000" d="M276.529 160.353c-2.38 3.571-7.35 6.446-8.453 9.753-.493 1.48 2.21 4.161 2.601 4.552 1.665 1.664 1.821 3.771 3.901 5.851 3.383 3.384 13.456-1.554 14.955-4.551.876-1.752 3.895-3.264 2.601-5.852-1.863-3.725-15.72-2.181-16.905-4.551-.327-.654 1.95-2.935 1.95-3.251" style="transform-box:fill-box" transform="rotate(90 0 -.00001)" transform-origin="50% 50%"/><path fill="#88470d" stroke="#000" d="M70.016 252.919c-.591 2.366-7.469 14.638-7.152 14.955 2.181 2.181 6.884 2.294 9.753 3.251 1.275.425 4.538 4.163 5.852 3.901 2.859-.572 6.948-9.957 5.201-11.704-2.592-2.592-8.952 2.026-10.403 1.301-1.24-.62-1.304-7.479-1.951-7.803-.866-.433-3.57-1.3-2.6-1.3" style="transform-box:fill-box" transform="rotate(90 0 .00001)" transform-origin="50% 50%"/><path fill="#88470d" stroke="#000" d="M138.937 187.9c-.591 2.366-7.469 14.638-7.152 14.955 2.181 2.181 6.884 2.294 9.753 3.251 1.275.425 4.538 4.163 5.852 3.901 2.859-.572 6.948-9.957 5.201-11.704-2.592-2.592-8.952 2.026-10.403 1.301-1.24-.62-1.304-7.479-1.951-7.803-.866-.433-3.57-1.3-2.6-1.3M325.734 339.056c-1.09 1.635-5.779 8.115-4.551 9.753 1.96 2.613 14.645 11.115 18.205 10.403.853-.171 14.119-13.5 9.753-14.955-2.944-.981-9.151 1.702-11.703 0-1.128-.752-1.58-3.53-2.601-4.551-1.252-1.253-6.535 1.3-8.452 1.3"/><path fill="#88470d" stroke="#000" d="M335.69799-137.921c4.516 1.505 7.136 10.8 13.004 8.452 7.129-2.851 5.852-9.972 5.852-16.905 0-1.808.892-6.26-.65-7.802-1.263-1.263-4.757 3.354-5.852 3.901-.967.484-8.216 4.138-9.103 3.251-.375-.376.651-3.251.651-3.251s-1.708 10.16-3.251 11.704" transform-origin="141.742px 345.254px"/><path fill="#88470d" stroke="#000" d="M149.625 387.714c-1.505 4.516-10.8 7.136-8.452 13.004 2.851 7.129 9.972 5.852 16.905 5.852 1.808 0 6.26.892 7.802-.65 1.263-1.263-3.354-4.757-3.901-5.852-.484-.967-4.138-8.216-3.251-9.103.376-.375 3.251.651 3.251.651s-10.16-1.708-11.704-3.251" transform-origin="153.446px 397.27px"/><path fill="#88470d" stroke="#000" d="M140.63902-214.644c4.516 1.505 7.136 10.8 13.004 8.452 7.129-2.851 5.852-9.972 5.852-16.905 0-1.808.892-6.26-.65-7.802-1.263-1.263-4.757 3.354-5.852 3.901-.967.484-8.216 4.138-9.103 3.251-.375-.376.651-3.251.651-3.251s-1.708 10.16-3.251 11.704" transform-origin="218.465px 150.195px"/><path fill="#88470d" stroke="#000" d="M191.35501-383.69497c4.516 1.505 7.136 10.8 13.004 8.452 7.129-2.851 5.852-9.972 5.852-16.905 0-1.808.892-6.26-.65-7.802-1.263-1.263-4.757 3.354-5.852 3.901-.967.484-8.216 4.138-9.103 3.251-.375-.376.651-3.251.651-3.251s-1.708 10.16-3.251 11.704" transform-origin="387.516px 200.911px"/><path fill="#88470d" stroke="#000" d="M292.13501-420.10599c4.516 1.505 7.136 10.8 13.004 8.452 7.129-2.851 5.852-9.972 5.852-16.905 0-1.808.892-6.26-.65-7.802-1.263-1.263-4.757 3.354-5.852 3.901-.967.484-8.216 4.138-9.103 3.251-.375-.376.651-3.251.651-3.251s-1.708 10.16-3.251 11.704" transform-origin="423.927px 301.691px"/><path fill="#88470d" stroke="#000" d="M309.04-82.655c4.516 1.505 7.136 10.8 13.004 8.452 7.129-2.851 5.852-9.972 5.852-16.905 0-1.808.892-6.26-.65-7.802-1.263-1.263-4.757 3.354-5.852 3.901-.967.484-8.216 4.138-9.103 3.251-.375-.376.651-3.251.651-3.251s-1.708 10.16-3.251 11.704" transform-origin="86.476px 318.596px"/><path fill="#d8d8d8" stroke="#ec2525" stroke-width="10" d="M408.323 152.796 104.681 436.281"/></svg>