<svg xmlns="http://www.w3.org/2000/svg" xmlns:xlink="http://www.w3.org/1999/xlink" width="100%" height="100%" viewBox="68.60679626464844 50.98262405395508 769.18896484375 448.3714294433594" preserveAspectRatio="xMinYMin meet" ><rect id="svgEditorBackground" x="0" y="0" width="810" height="560" style="fill:none; stroke: none;"/><line id="e13_line" x1="262.68" y1="276.09" x2="739.963" y2="273.745" style="stroke:red;fill:none;stroke-width:10px;"/><g id="e6_group" style="stroke-width:8.64px;stroke-opacity:1;stroke:red;"><path d="M171.61723,79.368797a207.74,207.74,0,0,1,1,407.46" style="fill:none;stroke:red;stroke-width:8.64px;stroke-opacity:1;" id="e2_circleArc" transform="matrix(-0.999957 -0.00922394 0.00922394 -0.999957 428.952 564.444)"/><path d="M254.910753,77.28a105.51,105.51,0,0,1,2.01,205.73" style="fill:none;stroke:red;stroke-width:8.64px;stroke-opacity:1;" id="e4_circleArc" transform="matrix(1 0 0 0.977777 0 1.49435)"/><path d="M256.917921,277.996847a105.51,105.51,0,0,1,2.01,205.73" style="fill:none;stroke:red;stroke-width:8.64px;stroke-opacity:1;" id="e3_circleArc"/><line id="e5_line" x1="258.93" y1="279.00" x2="326.17" y2="432.55" style="stroke:red;fill:none;stroke-width:8.64px;stroke-opacity:1;"/></g><line id="e1_line" x1="308.099000" y1="69.251800" x2="146.519000" y2="70.251800" style="stroke:black;fill:none;stroke-width:10px;" transform="matrix(1.20648 0 0 1 -15.3221 -1.00358)"/><line id="e8_line" x1="258.93" y1="73.26" x2="257.925" y2="483.734" style="stroke:black;fill:none;stroke-width:10px;"/><line id="e2_line" x1="308.166000" y1="484.920000" x2="146.586000" y2="485.920000" style="stroke:black;fill:none;stroke-width:10px;" transform="matrix(1.20648 0 0 1 -15.3221 -1.00358)"/><line id="e10_line" x1="405.753" y1="52.5355" x2="406.87" y2="473.381" style="stroke:black;fill:none;stroke-width:9.95px;" transform="matrix(1 0 0 1 -4.47106 12.2954)"/><line id="e3_line" x1="663.461" y1="-8.13468" x2="665.775000" y2="415.272000" style="stroke:black;fill:none;stroke-width:9.95px;" transform="matrix(-0.776914 0.481884 -0.378082 -0.990216 1075.25 156.389)"/><line id="e4_line" x1="396.005000" y1="-143.665000" x2="397.122000" y2="282.201000" style="stroke:black;fill:none;stroke-width:9.95px;" transform="matrix(-0.72419 0.475121 -0.352424 -0.976319 1056.07 154.966)"/><line id="e11_line" x1="563.35" y1="482.87" x2="667.393" y2="63.71" style="stroke:black;fill:none;stroke-width:10px;"/></svg>