<?xml version="1.0" encoding="UTF-8" standalone="no" ?>
<!DOCTYPE svg PUBLIC "-//W3C//DTD SVG 1.1//EN" "http://www.w3.org/Graphics/SVG/1.1/DTD/svg11.dtd">
<svg xmlns="http://www.w3.org/2000/svg" xmlns:xlink="http://www.w3.org/1999/xlink" version="1.1" width="150" height="150" viewBox="0 0 150 150" xml:space="preserve">
<desc>Created with Fabric.js 4.6.0</desc>
<defs>
</defs>
<g transform="matrix(1.78 0 0 1.7 69.77 81.36)" id="UjimadJ8x3ME5Hj7f05Oo"  >
<g style="" vector-effect="non-scaling-stroke"   >
		<g transform="matrix(0.97 0 0 0.97 0 0)" id="FrrKqZuyory48DliL7Ugd"  >
<g style="" vector-effect="non-scaling-stroke"   >
		<g transform="matrix(1 0 0 1 -45.85 -0.47)" id="FruMCGO40Ccqg0eEFOulZ"  >
<path style="stroke: rgb(0,0,0); stroke-width: 1; stroke-dasharray: none; stroke-linecap: butt; stroke-dashoffset: 0; stroke-linejoin: miter; stroke-miterlimit: 4; fill: rgb(255,255,255); fill-opacity: 0; fill-rule: nonzero; opacity: 0.48;" vector-effect="non-scaling-stroke"  transform=" translate(0, 0)" d="M 0 0" stroke-linecap="round" />
</g>
		<g transform="matrix(1 0 0 1 3.72 5.14)" id="oJLue5Ie5qv1e503dex0f"  >
<path style="stroke: rgb(0,0,0); stroke-width: 1; stroke-dasharray: none; stroke-linecap: butt; stroke-dashoffset: 0; stroke-linejoin: miter; stroke-miterlimit: 4; fill: rgb(255,255,255); fill-opacity: 0; fill-rule: nonzero; opacity: 0.48;" vector-effect="non-scaling-stroke"  transform=" translate(0, 0)" d="M -40.73276 0 L 40.73276 0" stroke-linecap="round" />
</g>
		<g transform="matrix(1 0 0 1 3.72 -0.47)" id="g7FJBqsq3WCcDEMyD-IXQ"  >
<path style="stroke: rgb(0,0,0); stroke-width: 1; stroke-dasharray: none; stroke-linecap: butt; stroke-dashoffset: 0; stroke-linejoin: miter; stroke-miterlimit: 4; fill: rgb(255,255,255); fill-opacity: 0; fill-rule: nonzero; opacity: 0.48;" vector-effect="non-scaling-stroke"  transform=" translate(0, 0)" d="M 0 -24.35345 L 0 24.35345" stroke-linecap="round" />
</g>
		<g transform="matrix(-1 0 0 -1 3.72 23.09)" id="0dQvg_M28v2GF0cnPpDEH"  >
<path style="stroke: rgb(0,0,0); stroke-width: 1; stroke-dasharray: none; stroke-linecap: butt; stroke-dashoffset: 0; stroke-linejoin: miter; stroke-miterlimit: 4; fill: rgb(255,255,255); fill-opacity: 0; fill-rule: nonzero; opacity: 0.48;" vector-effect="non-scaling-stroke"  transform=" translate(0, 0)" d="M -3.44828 1.72414 L 0.36206000000000005 -1.72414 L 3.44827 1.72414" stroke-linecap="round" />
</g>
		<g transform="matrix(1 0 0 1 3.72 -23.09)" id="GXQn_VdyZIoY1jxhdTjSs"  >
<path style="stroke: rgb(0,0,0); stroke-width: 1; stroke-dasharray: none; stroke-linecap: butt; stroke-dashoffset: 0; stroke-linejoin: miter; stroke-miterlimit: 4; fill: rgb(255,255,255); fill-opacity: 0; fill-rule: nonzero; opacity: 0.48;" vector-effect="non-scaling-stroke"  transform=" translate(0, 0)" d="M -3.44828 1.72414 L 0.36206000000000005 -1.72414 L 3.44827 1.72414" stroke-linecap="round" />
</g>
		<g transform="matrix(1 0 0 1 -35.9 4.64)" id="JCAmQOh-lAwdbnl3C-WJp"  >
<path style="stroke: rgb(0,0,0); stroke-width: 1; stroke-dasharray: none; stroke-linecap: butt; stroke-dashoffset: 0; stroke-linejoin: miter; stroke-miterlimit: 4; fill: rgb(255,255,255); fill-opacity: 0; fill-rule: nonzero; opacity: 0.48;" vector-effect="non-scaling-stroke"  transform=" translate(0, 0)" d="M 1.97414 -3.55603 L -1.97414 0.5388000000000002 C -1.97414 0.5388000000000002 0.9870699999999999 2.80173 1.97414 3.5560400000000003" stroke-linecap="round" />
</g>
		<g transform="matrix(-1 0 0 1 43.87 5.14)" id="TthDR7kAiwkAeovhUxKBa"  >
<path style="stroke: rgb(0,0,0); stroke-width: 1; stroke-dasharray: none; stroke-linecap: butt; stroke-dashoffset: 0; stroke-linejoin: miter; stroke-miterlimit: 4; fill: rgb(255,255,255); fill-opacity: 0; fill-rule: nonzero; opacity: 0.48;" vector-effect="non-scaling-stroke"  transform=" translate(0, 0)" d="M 1.97414 -3.55603 L -1.97414 0.5388000000000002 C -1.97414 0.5388000000000002 0.9870699999999999 2.80173 1.97414 3.5560400000000003" stroke-linecap="round" />
</g>
</g>
</g>
		<g transform="matrix(1 0 0 1 -1.94 -6.72)" id="XgpUXcxO7VUjlQ77akk1H"  >
<path style="stroke: rgb(0,0,0); stroke-width: 1; stroke-dasharray: none; stroke-linecap: butt; stroke-dashoffset: 0; stroke-linejoin: miter; stroke-miterlimit: 4; fill: rgb(255,255,255); fill-opacity: 0; fill-rule: nonzero; opacity: 1;" vector-effect="non-scaling-stroke"  transform=" translate(0, 0)" d="M 6.25 11.53017 L -6.25 -11.53017" stroke-linecap="round" />
</g>
		<g transform="matrix(1 0 0 1 10.35 -2.06)" id="IwGU-CExaK8RcxHxHJUh5"  >
<path style="stroke: rgb(53,237,53); stroke-width: 1; stroke-dasharray: none; stroke-linecap: butt; stroke-dashoffset: 0; stroke-linejoin: miter; stroke-miterlimit: 4; fill: rgb(255,255,255); fill-opacity: 0; fill-rule: nonzero; opacity: 1;" vector-effect="non-scaling-stroke"  transform=" translate(0, 0)" d="M 12.28448 7.36524 C 12.28448 7.36524 10.88362 -13.37614 -12.28449 -5.63476" stroke-linecap="round" />
</g>
		<g transform="matrix(1 0 0 1 -0.5 -8.32)" id="T2Y3I6cAPFj4DZFKMPYbr"  >
<path style="stroke: rgb(53,237,53); stroke-width: 1; stroke-dasharray: none; stroke-linecap: butt; stroke-dashoffset: 0; stroke-linejoin: miter; stroke-miterlimit: 4; fill: rgb(255,255,255); fill-opacity: 0; fill-rule: nonzero; opacity: 1;" vector-effect="non-scaling-stroke"  transform=" translate(0, 0)" d="M -1.43495 -1.60015 C -1.6504699999999999 0.9860599999999999 -1.43495 0.19928999999999997 -1.43495 0.19928999999999997 L 1.53074 1.60015" stroke-linecap="round" />
</g>
		<g transform="matrix(1 0 0 1 -0.5 -2.06)" id="v_9qkVPKfg5ikEnM2C3tS"  >
<path style="stroke: rgb(0,0,0); stroke-width: 1; stroke-dasharray: none; stroke-linecap: butt; stroke-dashoffset: 0; stroke-linejoin: miter; stroke-miterlimit: 4; fill: rgb(255,255,255); fill-opacity: 0; fill-rule: nonzero; opacity: 1;" vector-effect="non-scaling-stroke"  transform=" translate(0, 0)" d="M 0 0" stroke-linecap="round" />
</g>
		<g transform="matrix(1 0 0 1 -8.69 5.31)" id="fvA33cZRd1mIYtn8f1ie7"  >
<path style="stroke: rgb(0,0,0); stroke-width: 1; stroke-dasharray: none; stroke-linecap: butt; stroke-dashoffset: 0; stroke-linejoin: miter; stroke-miterlimit: 4; fill: rgb(255,255,255); fill-opacity: 0; fill-rule: nonzero; opacity: 1;" vector-effect="non-scaling-stroke"  transform=" translate(0, 0)" d="M 0 0" stroke-linecap="round" />
</g>
		<g transform="matrix(1 0 0 1 -8.19 0.5)" id="MNahPAeX858GqZqiDNiNQ"  >
<path style="stroke: rgb(0,0,0); stroke-width: 1; stroke-dasharray: none; stroke-linecap: butt; stroke-dashoffset: 0; stroke-linejoin: miter; stroke-miterlimit: 4; fill: rgb(255,255,255); fill-opacity: 0; fill-rule: nonzero; opacity: 1;" vector-effect="non-scaling-stroke"  transform=" translate(0, 0)" d="M 0 0" stroke-linecap="round" />
</g>
		<g transform="matrix(0.21 0 0 0.21 -12.58 -3.31)" id="BF8fUr6p9GV92rOQRfav7"  >
<path style="stroke: rgb(108,59,244); stroke-width: 1; stroke-dasharray: none; stroke-linecap: butt; stroke-dashoffset: 0; stroke-linejoin: miter; stroke-miterlimit: 4; fill: rgb(255,255,255); fill-opacity: 0; fill-rule: nonzero; opacity: 1;" vector-effect="non-scaling-stroke"  transform=" translate(0, 0)" d="M -14.08552 -13.02746 C -11.194550000000001 -8.40191 -10.198830000000001 -7.579859999999999 -7.49469 -5.83127 L -7.49469 -5.83127 C -2.9381000000000004 -2.88481 2.7036800000000003 -2.14864 7.863769999999999 -3.82723 L 10.317809999999998 -4.62553 L 10.317809999999998 -4.62553 C 11.994949999999998 -5.1711 13.304859999999998 -6.493830000000001 13.834079999999998 -8.176200000000001 C 14.363299999999999 -9.858570000000002 14.046529999999999 -11.693000000000001 12.983749999999999 -13.100460000000002 L 12.580239999999998 -13.634840000000002 L 12.580239999999998 -13.634840000000002 C 10.851489999999998 -15.924270000000002 7.764429999999998 -16.70558 5.154699999999998 -15.514190000000003 L 4.354139999999998 -15.148720000000003 L 4.354139999999998 -15.148720000000003 C 1.5235799999999982 -13.856510000000002 -0.29241000000000206 -11.031190000000002 -0.29241000000000206 -7.919620000000003 L -0.29241000000000206 5.722529999999998 L -0.29241000000000206 16.067359999999997" stroke-linecap="round" />
</g>
		<g transform="matrix(1 0 0 1 -1.94 -4.25)" id="zpjxPWX82fd_ORygsf0D6"  >
<path style="stroke: rgb(0,0,0); stroke-width: 1; stroke-dasharray: none; stroke-linecap: butt; stroke-dashoffset: 0; stroke-linejoin: miter; stroke-miterlimit: 4; fill: rgb(255,255,255); fill-opacity: 0; fill-rule: nonzero; opacity: 1;" vector-effect="non-scaling-stroke"  transform=" translate(0, 0)" d="M 0 0" stroke-linecap="round" />
</g>
		<g transform="matrix(1 0 0 1 -4.84 0.5)" id="1Tk6VbIg5oG-gVp6roQyb"  >
<path style="stroke: rgb(108,59,244); stroke-width: 1; stroke-dasharray: none; stroke-linecap: butt; stroke-dashoffset: 0; stroke-linejoin: miter; stroke-miterlimit: 4; fill: rgb(255,255,255); fill-opacity: 0; fill-rule: nonzero; opacity: 1;" vector-effect="non-scaling-stroke"  transform=" translate(0, 0)" d="M 3.84248 -4.52586 L 0.9145700000000003 -3.02627 C -0.5775199999999996 -2.26206 -1.7346699999999995 -0.9735399999999998 -2.33465 0.5918300000000003 L -3.84248 4.52587" stroke-linecap="round" />
</g>
		<g transform="matrix(1 0 0 1 -8.29 3.51)" id="Fvsa829aiVU4Rhlk_Je11"  >
<path style="stroke: rgb(108,59,244); stroke-width: 1; stroke-dasharray: none; stroke-linecap: butt; stroke-dashoffset: 0; stroke-linejoin: miter; stroke-miterlimit: 4; fill: rgb(255,255,255); fill-opacity: 0; fill-rule: nonzero; opacity: 1;" vector-effect="non-scaling-stroke"  transform=" translate(0, 0)" d="M -2.47845 -1.2931 L -0.39224000000000014 1.29311 L 2.47845 -1.2931" stroke-linecap="round" />
</g>
		<g transform="matrix(1 0 0 1 18.66 -10.99)" id="YBdMUg_M5wKn_MIWoQVmY"  >
<g style="" vector-effect="non-scaling-stroke"   >
		<g transform="matrix(0.25 0 0 0.31 -0.02 0)" id="DHH1o-F4lUvE8IaVyrZoX"  >
<path style="stroke: rgb(53,237,53); stroke-width: 1; stroke-dasharray: none; stroke-linecap: butt; stroke-dashoffset: 0; stroke-linejoin: miter; stroke-miterlimit: 4; fill: rgb(255,255,255); fill-rule: nonzero; opacity: 1;" vector-effect="non-scaling-stroke"  transform=" translate(0, 0)" d="M 0 -10.77586 C 5.94828 -10.77586 10.77586 -5.94827 10.77586 0 C 10.77586 5.94828 5.94827 10.77586 0 10.77586 C -5.94828 10.77586 -10.77586 5.94827 -10.77586 0 C -10.77586 -5.94828 -5.94827 -10.77586 0 -10.77586 z" stroke-linecap="round" />
</g>
		<g transform="matrix(1 0 0 1 0 0)" id="TQRAyXKSETOyk3vm3hj3z"  >
<path style="stroke: rgb(53,237,53); stroke-width: 1; stroke-dasharray: none; stroke-linecap: butt; stroke-dashoffset: 0; stroke-linejoin: miter; stroke-miterlimit: 4; fill: rgb(255,255,255); fill-opacity: 0; fill-rule: nonzero; opacity: 1;" vector-effect="non-scaling-stroke"  transform=" translate(0, 0)" d="M -2.76724 0 C -2.76724 0 1.3836199999999996 0 2.76724 0" stroke-linecap="round" />
</g>
</g>
</g>
</g>
</g>
</svg>