<?xml version="1.0" encoding="UTF-8" standalone="no" ?>
<!DOCTYPE svg PUBLIC "-//W3C//DTD SVG 1.1//EN" "http://www.w3.org/Graphics/SVG/1.1/DTD/svg11.dtd">
<svg xmlns="http://www.w3.org/2000/svg" xmlns:xlink="http://www.w3.org/1999/xlink" version="1.1" width="500" height="500" viewBox="0 0 500 500" xml:space="preserve">
<desc>Created with Fabric.js 5.3.0</desc>
<defs>
</defs>
<g transform="matrix(0.8119637778 0 0 1.0996333457 237.1123707921 216.4712649605)" id="qOGR1qq8O4aDZ4vbGGUoA"  >
<path style="stroke: rgb(26,30,145); stroke-width: 1; stroke-dasharray: none; stroke-linecap: butt; stroke-dashoffset: 0; stroke-linejoin: miter; stroke-miterlimit: 4; fill: rgb(255,255,255); fill-opacity: 0; fill-rule: nonzero; opacity: 1;" vector-effect="non-scaling-stroke"  transform=" translate(9.052e-7, 0.0000048543)" d="M 103.73375 -109.02058 C -99.55127 -110.56647 -275.31006 -93.81347 -101.39701000000001 -35.069509999999994 C -20.957400000000007 -7.898799999999994 58.59764 -10.977439999999994 115.18192999999998 3.9035200000000074 C 180.93471 21.195680000000007 210.29756999999998 55.59893000000001 89.82070999999998 78.03255000000001 C -134.33388000000002 119.77168000000002 -154.4305 107.40453000000002 -154.4305 107.40453000000002" stroke-linecap="round" />
</g>
<g transform="matrix(0.4341719927 -0.0765562366 0.1371632572 0.7778914869 183.6931204979 79.6328977244)" id="MHn2APQihhhdQB14kN6Ul"  >
<path style="stroke: rgb(0,0,0); stroke-width: 1; stroke-dasharray: none; stroke-linecap: butt; stroke-dashoffset: 0; stroke-linejoin: miter; stroke-miterlimit: 4; fill: rgb(255,255,255); fill-rule: nonzero; opacity: 1;" vector-effect="non-scaling-stroke"  transform=" translate(0, 0)" d="M 0 -38.64734 C 21.33333 -38.64734 38.64734 -21.33333 38.64734 0 C 38.64734 21.33333 21.33333 38.64734 0 38.64734 C -21.33333 38.64734 -38.64734 21.33333 -38.64734 0 C -38.64734 -21.33333 -21.33333 -38.64734 0 -38.64734 z" stroke-linecap="round" />
</g>
<g transform="matrix(-0.0221322535 0 0 0.1201360317 309.941775347 309.7984537886)" id="5d6cbTx-sao8KHKot5IJM"  >
<path style="stroke: rgb(0,0,0); stroke-width: 0; stroke-dasharray: none; stroke-linecap: butt; stroke-dashoffset: 0; stroke-linejoin: miter; stroke-miterlimit: 4; fill: rgb(15,32,167); fill-rule: nonzero; opacity: 1;" vector-effect="non-scaling-stroke"  transform=" translate(-0.000005, -0.000005)" d="M -51.6129 -51.6129 L 51.61290999999999 -51.6129 L 51.61290999999999 51.61290999999999 L -51.6129 51.61290999999999 z" stroke-linecap="round" />
</g>
<g transform="matrix(0.4327697756 0.0841219228 -0.150718445 0.7753791814 274.5668338145 79.8351875682)" id="cKoGGUXEwMvgq-6r2GLPX"  >
<path style="stroke: rgb(0,0,0); stroke-width: 1; stroke-dasharray: none; stroke-linecap: butt; stroke-dashoffset: 0; stroke-linejoin: miter; stroke-miterlimit: 4; fill: rgb(255,255,255); fill-rule: nonzero; opacity: 1;" vector-effect="non-scaling-stroke"  transform=" translate(0, 0)" d="M 0 -38.64734 C 21.33333 -38.64734 38.64734 -21.33333 38.64734 0 C 38.64734 21.33333 21.33333 38.64734 0 38.64734 C -21.33333 38.64734 -38.64734 21.33333 -38.64734 0 C -38.64734 -21.33333 -21.33333 -38.64734 0 -38.64734 z" stroke-linecap="round" />
</g>
<g transform="matrix(0.390422106 -0.104613288 0.1477887198 0.5515550109 321.4324849382 334.5543176897)" id="WfKnlsgqbaPZ9CqaZgePX"  >
<g style="" vector-effect="non-scaling-stroke"   >
		<g transform="matrix(1 0 0 1 0 0)" id="kUT6zNtFlMP80HSPwwcqC"  >
<path style="stroke: rgb(0,0,0); stroke-width: 1; stroke-dasharray: none; stroke-linecap: butt; stroke-dashoffset: 0; stroke-linejoin: miter; stroke-miterlimit: 4; fill: rgb(252,134,29); fill-rule: nonzero; opacity: 1;" vector-effect="non-scaling-stroke"  transform=" translate(-0.000005, -0.000011193)" d="M -4.19106 44.96705 C -0.7582700000000004 45.56406 2.7724399999999996 45.21019 6.018470000000001 43.94379 L 21.21774 38.013980000000004 L 22.68835 37.127590000000005 L 22.68835 37.127590000000005 C 30.56015 32.382960000000004 36.36625 24.858600000000003 38.95968 16.040960000000005 L 38.95968 16.040960000000005 L 38.95968 10.635310000000006 L 38.95968 10.635310000000006 C 38.95968 6.010370000000006 36.892089999999996 1.6276000000000064 33.32278 -1.3135199999999934 L 32.137640000000005 -2.2900699999999934 L 32.137640000000005 -2.2900699999999934 C 31.311540000000004 -2.9707799999999933 30.558120000000006 -3.7351699999999934 29.889430000000004 -4.571039999999993 L 21.217740000000006 -15.410649999999993 L 20.149940000000008 -17.610319999999994 L 20.149940000000008 -17.610319999999994 C 18.72979000000001 -20.535829999999994 17.991930000000007 -23.745429999999995 17.991930000000007 -26.997409999999995 L 17.991930000000007 -32.346129999999995 L 17.991930000000007 -38.79774 L 11.540320000000008 -38.79774 L 6.7016100000000085 -38.79774 L 4.043050000000008 -41.83609 L 4.043050000000008 -41.83609 C 2.145110000000008 -44.00516 -0.5967899999999924 -45.24935 -3.478979999999992 -45.24935 L -10.233869999999992 -45.24935 L -18.837079999999993 -45.24935 L -18.837079999999993 -45.24935 C -21.121259999999992 -45.24935 -23.360629999999993 -44.61551 -25.305969999999995 -43.41838 L -30.830329999999996 -40.018769999999996 L -30.830329999999996 -40.018769999999996 C -32.14317 -39.21087 -33.306 -38.18145 -34.26714 -36.976259999999996 L -37.61987 -32.772209999999994 L -37.61987 -32.772209999999994 C -37.84269 -32.49280999999999 -37.99028 -32.16101 -38.04857 -31.808429999999994 L -38.959669999999996 -26.297739999999994 L -38.959669999999996 -22.400399999999994 L -38.959669999999996 -22.400399999999994 C -38.959669999999996 -21.505729999999993 -38.88119 -20.612779999999994 -38.725139999999996 -19.731819999999995 L -37.959669999999996 -15.410639999999995 L -32.81451 0.008710000000004214 L -32.81451 8.423240000000003 L -32.81451 8.423240000000003 C -32.81451 10.268360000000003 -32.57877 12.105920000000003 -32.11302 13.891290000000003 L -29.302909999999997 24.663370000000004 L -29.302909999999997 24.663370000000004 C -28.428329999999995 28.015920000000005 -26.845279999999995 31.142050000000005 -24.660439999999998 33.83108 L -21.991629999999997 37.11577 L -21.991629999999997 37.11577 C -19.09012 40.686859999999996 -14.994979999999998 43.088119999999996 -10.461779999999997 43.8765 z" stroke-linecap="round" />
</g>
		<g transform="matrix(1 0 0 1 -10.3306427419 -26.0880806421)" id="05M_Z4YHSl4cu8nFIqbgz"  >
<path style="stroke: rgb(0,0,0); stroke-width: 1; stroke-dasharray: none; stroke-linecap: butt; stroke-dashoffset: 0; stroke-linejoin: miter; stroke-miterlimit: 4; fill: rgb(255,255,255); fill-opacity: 0; fill-rule: nonzero; opacity: 1;" vector-effect="non-scaling-stroke"  transform=" translate(0, 0)" d="M -27.62903 12.5 L -28.62903 2.1129 L -25.51874 -1.2323000000000004 L -25.51874 -1.2323000000000004 C -24.060090000000002 -2.8011200000000005 -22.20576 -3.9480200000000005 -20.150650000000002 -4.55246 L -9.580640000000002 -7.66129 L -3.195120000000003 -10.05586 L -3.195120000000003 -10.05586 C 1.1148699999999971 -11.67211 5.680419999999998 -12.5 10.283499999999997 -12.5 L 17.032259999999997 -12.5 L 28.629029999999997 -12.5 L 28.629029999999997 1.1128999999999998 L 20.145459999999996 1.1128999999999998 L 20.145459999999996 1.1128999999999998 C 18.084439999999997 1.1128999999999998 16.037869999999998 1.4568399999999997 14.090069999999997 2.1305499999999995 L 3.3225799999999968 5.854839999999999 L -9.580650000000004 6.854839999999999 z" stroke-linecap="round" />
</g>
		<g transform="matrix(1 0 0 1 3.685483871 -20.2493709647)" id="YLWcC3kCezDirlpX5ORKf"  >
<path style="stroke: rgb(0,0,0); stroke-width: 1; stroke-dasharray: none; stroke-linecap: butt; stroke-dashoffset: 0; stroke-linejoin: miter; stroke-miterlimit: 4; fill: rgb(255,255,255); fill-opacity: 0; fill-rule: nonzero; opacity: 1;" vector-effect="non-scaling-stroke"  transform=" translate(0, 0)" d="M 0 0 z" stroke-linecap="round" />
</g>
		<g transform="matrix(1.0358672665 0 0 1 5.3387084677 30.4265915886)" id="nBcvMJq9iTcNPhVzPY0do"  >
<path style="stroke: rgb(0,0,0); stroke-width: 0; stroke-dasharray: none; stroke-linecap: butt; stroke-dashoffset: 0; stroke-linejoin: miter; stroke-miterlimit: 4; fill: rgb(209,111,25); fill-rule: nonzero; opacity: 0.39;" vector-effect="non-scaling-stroke"  transform=" translate(0, 7.151e-7)" d="M -32.93952 -12.286 C -32.93952 -13.31148 -32.43989 -14.26769 -31.611060000000002 -14.82847 C -30.782230000000002 -15.389249999999999 -29.73616 -15.47885 -28.82966 -15.066699999999999 L -18.21814 -10.242049999999999 L -18.21814 -10.242049999999999 C -14.634179999999999 -8.612559999999998 -10.75171 -7.807529999999999 -6.838389999999999 -7.882459999999999 L 13.33468 -8.26873 L 32.93952 -12.90304 L 27.54436 0.00018999999999991246 L 23.53169 3.42982 L 23.53169 3.42982 C 17.49926 8.585749999999999 10.3016 12.0703 2.6135800000000025 13.55677 L -6.520159999999997 15.32277 L -19.047779999999996 11.98385 L -19.047779999999996 11.98385 C -20.772029999999997 11.5243 -22.418769999999995 10.79578 -23.931539999999995 9.82329 L -26.850259999999995 7.94697 L -26.850259999999995 7.94697 C -30.636519999999994 5.51294 -32.939519999999995 1.2248 -32.939519999999995 -3.391169999999999 z" stroke-linecap="round" />
</g>
		<g transform="matrix(0.1234539935 -0.0712761964 0.055 0.0952627944 3.185483871 8.3885400958)" id="1GocCTc5pmh2Jmig3jwmD"  >
<path style="stroke: rgb(0,0,0); stroke-width: 0; stroke-dasharray: none; stroke-linecap: butt; stroke-dashoffset: 0; stroke-linejoin: miter; stroke-miterlimit: 4; fill: rgb(197,103,20); fill-rule: nonzero; opacity: 1;" vector-effect="non-scaling-stroke"  transform=" translate(0, 0)" d="M -40.32258 -40.32258 L 40.32258 -40.32258 L 40.32258 40.32258 L -40.32258 40.32258 z" stroke-linecap="round" />
</g>
		<g transform="matrix(0.1153273084 0.0837901942 -0.0646563778 0.0889918694 -18.4826767645 -11.7689261165)" id="PBpuy7KHPaVZkF6izh806"  >
<path style="stroke: rgb(0,0,0); stroke-width: 0; stroke-dasharray: none; stroke-linecap: butt; stroke-dashoffset: 0; stroke-linejoin: miter; stroke-miterlimit: 4; fill: rgb(197,103,20); fill-rule: nonzero; opacity: 1;" vector-effect="non-scaling-stroke"  transform=" translate(0, 0)" d="M -40.32258 -40.32258 L 40.32258 -40.32258 L 40.32258 40.32258 L -40.32258 40.32258 z" stroke-linecap="round" />
</g>
		<g transform="matrix(0.116772084 -0.0817646935 0.063093408 0.0901067249 20.0994148831 0)" id="7Kz21ZVwqZ2vuI6erBzmD"  >
<path style="stroke: rgb(0,0,0); stroke-width: 0; stroke-dasharray: none; stroke-linecap: butt; stroke-dashoffset: 0; stroke-linejoin: miter; stroke-miterlimit: 4; fill: rgb(197,103,20); fill-rule: nonzero; opacity: 1;" vector-effect="non-scaling-stroke"  transform=" translate(0, 0)" d="M -40.32258 -40.32258 L 40.32258 -40.32258 L 40.32258 40.32258 L -40.32258 40.32258 z" stroke-linecap="round" />
</g>
		<g transform="matrix(0.1347859354 0.0464105194 -0.035812497 0.1040070433 3.685483871 -10.867131744)" id="goTX14zGKN3l2F1QYEN6S"  >
<path style="stroke: rgb(0,0,0); stroke-width: 0; stroke-dasharray: none; stroke-linecap: butt; stroke-dashoffset: 0; stroke-linejoin: miter; stroke-miterlimit: 4; fill: rgb(197,103,20); fill-rule: nonzero; opacity: 1;" vector-effect="non-scaling-stroke"  transform=" translate(0, 0)" d="M -40.32258 -40.32258 L 40.32258 -40.32258 L 40.32258 40.32258 L -40.32258 40.32258 z" stroke-linecap="round" />
</g>
		<g transform="matrix(0.127015112 0.064717432 -0.049938955 0.0980107177 -18.6048387097 1.7597114033)" id="uWTIE8aXiIi2KHiFLmvvC"  >
<path style="stroke: rgb(0,0,0); stroke-width: 0; stroke-dasharray: none; stroke-linecap: butt; stroke-dashoffset: 0; stroke-linejoin: miter; stroke-miterlimit: 4; fill: rgb(197,103,20); fill-rule: nonzero; opacity: 1;" vector-effect="non-scaling-stroke"  transform=" translate(0, 0)" d="M -40.32258 -40.32258 L 40.32258 -40.32258 L 40.32258 40.32258 L -40.32258 40.32258 z" stroke-linecap="round" />
</g>
		<g transform="matrix(0.1701387764 -0.0424203613 0.0161973579 0.0649640543 18.7983895161 30.4265915886)" id="EUHcXjw3SM2JYU4q1YqZb"  >
<path style="stroke: rgb(0,0,0); stroke-width: 0; stroke-dasharray: none; stroke-linecap: butt; stroke-dashoffset: 0; stroke-linejoin: miter; stroke-miterlimit: 4; fill: rgb(197,103,20); fill-rule: nonzero; opacity: 1;" vector-effect="non-scaling-stroke"  transform=" translate(0, 0)" d="M -40.32258 -40.32258 L 40.32258 -40.32258 L 40.32258 40.32258 L -40.32258 40.32258 z" stroke-linecap="round" />
</g>
		<g transform="matrix(0.1019091219 0.0661805575 0.0510679701 -0.0786377779 -17.6380252 30.4265915886)" id="lVIQaa9euDt5roWzkn3sy"  >
<path style="stroke: rgb(0,0,0); stroke-width: 0; stroke-dasharray: none; stroke-linecap: butt; stroke-dashoffset: 0; stroke-linejoin: miter; stroke-miterlimit: 4; fill: rgb(197,103,20); fill-rule: nonzero; opacity: 1;" vector-effect="non-scaling-stroke"  transform=" translate(0, 0)" d="M -40.32258 -40.32258 L 40.32258 -40.32258 L 40.32258 40.32258 L -40.32258 40.32258 z" stroke-linecap="round" />
</g>
</g>
</g>
<g transform="matrix(1 0 0 1 467.7258971047 203.1404725652)" id="oYP1zh0dTFVoxQXCFWGp8"  >
<path style="stroke: rgb(0,0,0); stroke-width: 1; stroke-dasharray: none; stroke-linecap: butt; stroke-dashoffset: 0; stroke-linejoin: miter; stroke-miterlimit: 4; fill: rgb(255,255,255); fill-opacity: 0; fill-rule: nonzero; opacity: 1;" vector-effect="non-scaling-stroke"  transform=" translate(0, 0)" d="M 0 0" stroke-linecap="round" />
</g>
<g transform="matrix(-0.0221322535 0 0 0.1201360317 169.8772592179 336.9597441112)" id="KPDJRz_-zvPmrqJElBeTj"  >
<path style="stroke: rgb(0,0,0); stroke-width: 0; stroke-dasharray: none; stroke-linecap: butt; stroke-dashoffset: 0; stroke-linejoin: miter; stroke-miterlimit: 4; fill: rgb(15,32,167); fill-rule: nonzero; opacity: 1;" vector-effect="non-scaling-stroke"  transform=" translate(-0.000005, -0.000005)" d="M -51.6129 -51.6129 L 51.61290999999999 -51.6129 L 51.61290999999999 51.61290999999999 L -51.6129 51.61290999999999 z" stroke-linecap="round" />
</g>
<g transform="matrix(1 0 0 1 276.0007869316 79.8351875682)" id="-rL546iio9x2Mfy9rBHbC"  >
<g style="" vector-effect="non-scaling-stroke"   >
		<g transform="matrix(0.1487041359 0 0 0.1715787987 0 0)" id="ZR7MI26dfOf65ZKgTXV5d"  >
<path style="stroke: rgb(129,109,223); stroke-width: 1; stroke-dasharray: none; stroke-linecap: butt; stroke-dashoffset: 0; stroke-linejoin: miter; stroke-miterlimit: 4; fill: rgb(30,45,165); fill-rule: nonzero; opacity: 1;" vector-effect="non-scaling-stroke"  transform=" translate(0, 0)" d="M 0 -38.64734 C 21.33333 -38.64734 38.64734 -21.33333 38.64734 0 C 38.64734 21.33333 21.33333 38.64734 0 38.64734 C -21.33333 38.64734 -38.64734 21.33333 -38.64734 0 C -38.64734 -21.33333 -21.33333 -38.64734 0 -38.64734 z" stroke-linecap="round" />
</g>
		<g transform="matrix(0.0704181602 0 0 0.0812503517 3.0255449514 0)" id="DhceD3lTMIhdJpBaXCVrS"  >
<path style="stroke: rgb(0,0,0); stroke-width: 1; stroke-dasharray: none; stroke-linecap: butt; stroke-dashoffset: 0; stroke-linejoin: miter; stroke-miterlimit: 4; fill: rgb(255,255,255); fill-rule: nonzero; opacity: 1;" vector-effect="non-scaling-stroke"  transform=" translate(0, 0)" d="M 0 -38.64734 C 21.33333 -38.64734 38.64734 -21.33333 38.64734 0 C 38.64734 21.33333 21.33333 38.64734 0 38.64734 C -21.33333 38.64734 -38.64734 21.33333 -38.64734 0 C -38.64734 -21.33333 -21.33333 -38.64734 0 -38.64734 z" stroke-linecap="round" />
</g>
</g>
</g>
<g transform="matrix(-0.0496029495 0.0973512697 0.1021038214 0.0520244955 128.8604564685 226.3948673977)" id="TPwBr47dnbTDfXf0jT1Te"  >
<path style="stroke: rgb(0,0,0); stroke-width: 1; stroke-dasharray: none; stroke-linecap: butt; stroke-dashoffset: 0; stroke-linejoin: miter; stroke-miterlimit: 4; fill: rgb(21,27,158); fill-rule: nonzero; opacity: 1;" vector-effect="non-scaling-stroke"  transform=" translate(-0.000015, -0.00001)" d="M 15.72581 168.14516 L 15.72581 168.14516 L 15.72581 168.14516 C 56.429919999999996 163.67764 91.23843 138.18487 106.26111999999999 101.83966000000001 L 106.85484999999998 100.40323000000001 L 118.14516999999998 47.983880000000006 L 147.34793 -40.98265 L 147.34793 -40.98265 C 150.97664 -52.03756 152.82259 -63.553979999999996 152.82259 -75.13764 L 152.82259 -83.46773 L 152.82259 -83.46773 L 152.82259 -83.46773 C 145.63331 -87.06237 137.18517 -87.59141 129.56454 -84.92419000000001 L 129.56454 -84.92419000000001 L 129.56454 -84.92419000000001 C 126.87450999999999 -83.98268000000002 124.61206999999999 -82.17779000000002 123.16551999999999 -79.81929000000001 L 88.30645999999999 -22.983860000000007 L 88.30645999999999 -99.59676 L 84.42258999999999 -122.89999 L 84.42258999999999 -122.89999 C 82.75038999999998 -132.93317 77.91714999999999 -142.24413 70.56452999999999 -149.59676000000002 L 70.56452999999999 -149.59676000000002 L 70.56452999999999 -149.59676000000002 L 70.56452999999999 -149.59676000000002 C 63.96325999999999 -149.59676000000002 57.74568999999999 -146.63913000000002 53.775729999999996 -141.61052 L 53.775729999999996 -141.61052 L 53.775729999999996 -141.61052 C 49.936569999999996 -136.74759 46.89073 -131.3591 44.74149 -125.62780000000001 L 42.20542 -118.86495000000001 L 42.20542 -118.86495000000001 C 39.61779 -111.96461000000001 38.0119 -104.7647 37.43065 -97.45753 L 32.6613 -37.499990000000004 L 27.016139999999996 -83.46773 L 25.206239999999998 -106.99644 L 25.206239999999998 -106.99644 C 24.265549999999998 -119.22535 21.822509999999998 -131.3067 17.927249999999997 -142.99247 L 15.725819999999997 -149.59676 L -0.42211000000000176 -168.14515 L -0.42211000000000176 -168.14515 L -0.42211000000000176 -168.14515 C -7.933040000000002 -168.14515 -14.911570000000001 -164.44738 -18.87775 -158.3659 L -18.87775 -158.3659 L -18.87775 -158.3659 C -22.657989999999998 -152.56954000000002 -25.284489999999998 -146.15809000000002 -26.625439999999998 -139.45332000000002 L -27.90759 -133.04259000000002 L -27.90759 -133.04259000000002 C -28.92391 -127.96099000000002 -29.43546 -122.79935000000002 -29.43546 -117.62619000000002 L -29.43546 -37.499990000000025 L -39.11288 -57.661280000000026 L -51.209649999999996 -83.46773000000003 L -65.39889 -102.59236000000003 L -65.39889 -102.59236000000003 C -68.29921999999999 -106.50150000000002 -71.55923 -110.15635000000003 -75.14023999999999 -113.51355000000002 L -75.14023999999999 -113.51355000000002 L -75.14023999999999 -113.51355000000002 C -80.08375 -118.14809000000002 -86.10938999999999 -121.59895000000003 -92.72269 -123.58294000000002 L -94.37965 -124.08003000000002 L -94.37965 -124.08003000000002 C -96.87265 -124.82793000000002 -99.55073 -123.62888000000002 -100.53931 -121.32219000000002 L -102.52812 -116.68164000000002 L -102.52812 -116.68164000000002 C -104.85274 -111.25754000000002 -106.04836 -105.45403000000002 -106.04836 -99.59456000000002 L -106.04836 -93.14516000000002 L -56.04836 27.822579999999988 L -69.75804000000001 21.37096999999999 L -70.28688000000001 20.67686999999999 L -70.28688000000001 20.67686999999999 C -78.50559000000001 9.88981999999999 -88.07787000000002 0.10220999999998881 -98.7903 -8.46774000000001 L -98.7903 -8.46774000000001 L -109.76147 -10.46250000000001 L -109.76147 -10.46250000000001 C -119.80524 -12.28864000000001 -130.2011 -10.374400000000009 -138.80943 -5.113750000000009 L -138.80943 -5.113750000000009 L -138.80943 -5.113750000000009 C -144.22807 -1.8023600000000095 -148.31179 3.16009999999999 -150.39596 8.96600999999999 L -152.82256 15.72581999999999 L -152.82256 15.72581999999999 L -152.82256 15.72581999999999 C -149.09354000000002 23.71656999999999 -143.79598000000001 30.95353999999999 -137.21538 37.04668999999999 L -125.40321000000002 47.98387999999999 L -98.79031000000002 76.20969 L -73.79031000000002 115.72582 L -51.20966000000002 143.14517 L -18.95160000000002 160.88711 C -18.95160000000002 160.88711 -39.11289000000002 167.33872 15.725819999999977 168.14517 z" stroke-linecap="round" />
</g>
<g transform="matrix(0.6193305869 0 0 0.7728312861 183.7551177721 62.2009123011)" id="bMMbw5riim4ANzc4kUEU4"  >
<path style="stroke: rgb(0,0,0); stroke-width: 1; stroke-dasharray: none; stroke-linecap: butt; stroke-dashoffset: 0; stroke-linejoin: miter; stroke-miterlimit: 4; fill: rgb(252,134,29); fill-rule: nonzero; opacity: 1;" vector-effect="non-scaling-stroke"  transform=" translate(-0.00001, 2.467e-7)" d="M -35.88037 21.64728 L -31.19545 4.161739999999998 L -31.19545 4.161739999999998 C -28.63824 -5.382540000000002 -21.52211 -13.746010000000002 -11.36916 -19.139760000000003 L -11.36916 -19.139760000000003 L -11.36916 -19.139760000000003 C -4.90408 -22.574330000000003 3.5299899999999997 -22.47267 9.863239999999998 -18.883830000000003 L 13.055599999999998 -17.074830000000002 L 13.055599999999998 -17.074830000000002 C 20.36189 -12.934600000000003 25.981319999999997 -7.158750000000003 29.209999999999997 -0.4707700000000017 L 35.88039 13.346459999999999 z" stroke-linecap="round" />
</g>
<g transform="matrix(0.3548948984 0 0 0.534940788 169.73983997 363.9156134491)" id="E3rHgEF49XXWoV7wg4-PG"  >
<g style="" vector-effect="non-scaling-stroke"   >
		<g transform="matrix(1 0 0 1 0 0.5)" id="aoNmeuaTkWqS1Id2yZUtI"  >
<path style="stroke: rgb(0,0,0); stroke-width: 1; stroke-dasharray: none; stroke-linecap: butt; stroke-dashoffset: 0; stroke-linejoin: miter; stroke-miterlimit: 4; fill: rgb(252,134,29); fill-rule: nonzero; opacity: 1;" vector-effect="non-scaling-stroke"  transform=" translate(-0.0000213265, 0.0000086425)" d="M 32.15109 -40.62375 C 20.054320000000004 -51.10762 3.9252800000000043 -47.478590000000004 3.9252800000000043 -47.478590000000004 L -3.543439999999996 -47.478590000000004 L -3.543439999999996 -47.478590000000004 C -4.993739999999995 -47.478590000000004 -6.421889999999996 -47.122780000000006 -7.702669999999996 -46.442370000000004 L -17.027579999999993 -41.488510000000005 L -17.027579999999993 -41.488510000000005 C -18.104429999999994 -40.916430000000005 -19.072689999999994 -40.160050000000005 -19.888419999999993 -39.253690000000006 L -21.17692999999999 -37.82202000000001 L -21.17692999999999 -37.82202000000001 C -24.22619999999999 -34.43394000000001 -25.91342999999999 -30.03708000000001 -25.91342999999999 -25.478890000000007 L -25.91342999999999 -23.688270000000006 L -25.91342999999999 -18.390110000000007 L -25.91342999999999 -18.390110000000007 C -25.91342999999999 -15.558110000000006 -26.893219999999992 -12.813330000000008 -28.68653999999999 -10.621490000000007 L -30.39146999999999 -8.537690000000007 L -30.39146999999999 -8.537690000000007 C -32.23328999999999 -6.286580000000006 -33.70848999999999 -3.7590300000000063 -34.76268999999999 -1.0482300000000064 L -37.694979999999994 6.491939999999993 L -37.694979999999994 6.491939999999993 C -38.436299999999996 8.398179999999993 -38.816649999999996 10.425659999999993 -38.816649999999996 12.470969999999994 L -38.816649999999996 21.626309999999997 L -38.816649999999996 21.626309999999997 C -38.816649999999996 23.107919999999996 -38.405519999999996 24.560459999999996 -37.629009999999994 25.822279999999996 L -29.250359999999993 39.43758999999999 L -29.250359999999993 39.43758999999999 C -27.107689999999995 42.919419999999995 -23.71164999999999 45.44725 -19.76138999999999 46.50064999999999 L -15.847909999999992 47.544239999999995 L -15.847909999999992 47.544239999999995 C -14.499499999999992 47.903819999999996 -13.109929999999991 48.08591 -11.714389999999991 48.08591 L 3.925300000000009 48.08591 L 13.53677000000001 48.08591 L 13.53677000000001 48.08591 C 16.21687000000001 48.08591 18.84501000000001 47.34644 21.13190000000001 45.948899999999995 L 25.04806000000001 43.55569 L 25.04806000000001 43.55569 C 29.63518000000001 40.752449999999996 33.08351000000001 36.41771 34.78351000000001 31.317729999999997 L 36.183370000000004 27.118159999999996 L 36.183370000000004 3.1641299999999966 L 36.183370000000004 3.1641299999999966 C 36.183370000000004 2.4694399999999965 36.09817 1.7773799999999966 35.92969 1.1034299999999964 L 32.15112 -14.010870000000004 L 35.28226 -17.142010000000003 L 35.28226 -17.142010000000003 C 35.85924 -17.71899 36.18338 -18.501530000000002 36.18338 -19.317500000000003 L 36.18338 -32.55926 C 36.18338 -32.55926 44.2479 -30.13991 32.15112 -40.623780000000004 z" stroke-linecap="round" />
</g>
		<g transform="matrix(1 0 0 1 -31.5585911784 -48.5859270861)" id="dGlIxrZarzVBMpvop9ngT"  >
<path style="stroke: rgb(0,0,0); stroke-width: 1; stroke-dasharray: none; stroke-linecap: butt; stroke-dashoffset: 0; stroke-linejoin: miter; stroke-miterlimit: 4; fill: rgb(255,255,255); fill-opacity: 0; fill-rule: nonzero; opacity: 1;" vector-effect="non-scaling-stroke"  transform=" translate(0, 0)" d="M 0 0" stroke-linecap="round" />
</g>
		<g transform="matrix(1.0746588246 0 0 0.9186622518 -1.7815962635 35.3306451613)" id="Wyrahs7VD0O3DBzNsZNhe"  >
<path style="stroke: rgb(252,134,29); stroke-width: 0; stroke-dasharray: none; stroke-linecap: butt; stroke-dashoffset: 0; stroke-linejoin: miter; stroke-miterlimit: 4; fill: rgb(167,87,15); fill-rule: nonzero; opacity: 0.23;" vector-effect="non-scaling-stroke"  transform=" translate(0, 0.000005)" d="M -31.39516 -14.97317 L -5.588709999999999 -6.801029999999999 L 9.427420000000001 -6.801029999999999 L 24.75 -6.801029999999999 L 34.92742 -11.63974 L 34.92742 -0.3494200000000003 L 30.395159999999997 10.13445 L 14.572579999999997 14.97316 L -5.588710000000004 14.97316 L -21.217740000000006 10.134450000000001 L -34.927420000000005 -6.801029999999997 z" stroke-linecap="round" />
</g>
		<g transform="matrix(0.1288 0 0 0.1012 -1.7815962635 0.5)" id="xDpbG5I-wCOro76NTklXx"  >
<path style="stroke: rgb(252,134,29); stroke-width: 0; stroke-dasharray: none; stroke-linecap: butt; stroke-dashoffset: 0; stroke-linejoin: miter; stroke-miterlimit: 4; fill: rgb(167,87,15); fill-rule: nonzero; opacity: 0.71;" vector-effect="non-scaling-stroke"  transform=" translate(0, 0)" d="M -40.32258 -40.32258 L 40.32258 -40.32258 L 40.32258 40.32258 L -40.32258 40.32258 z" stroke-linecap="round" />
</g>
		<g transform="matrix(0.1080207692 -0.0701495077 0.0551174703 0.0848734615 21.0160939745 14.6484295972)" id="QSckVo-ibBbrEKni55lzp"  >
<path style="stroke: rgb(252,134,29); stroke-width: 0; stroke-dasharray: none; stroke-linecap: butt; stroke-dashoffset: 0; stroke-linejoin: miter; stroke-miterlimit: 4; fill: rgb(167,87,15); fill-rule: nonzero; opacity: 0.71;" vector-effect="non-scaling-stroke"  transform=" translate(0, 0)" d="M -40.32258 -40.32258 L 40.32258 -40.32258 L 40.32258 40.32258 L -40.32258 40.32258 z" stroke-linecap="round" />
</g>
		<g transform="matrix(0.111544072 -0.0644 0.0506 0.0876417709 19.4350342078 -2.2297554688)" id="Lg2wMSNf3PKntRiO4YXtP"  >
<path style="stroke: rgb(252,134,29); stroke-width: 0; stroke-dasharray: none; stroke-linecap: butt; stroke-dashoffset: 0; stroke-linejoin: miter; stroke-miterlimit: 4; fill: rgb(167,87,15); fill-rule: nonzero; opacity: 0.71;" vector-effect="non-scaling-stroke"  transform=" translate(0, 0)" d="M -40.32258 -40.32258 L 40.32258 -40.32258 L 40.32258 40.32258 L -40.32258 40.32258 z" stroke-linecap="round" />
</g>
		<g transform="matrix(0.1288 0 0 0.0732000004 -7.8783702764 18.6237503187)" id="b67Zrr6gzwuQ38_aTR5Kp"  >
<path style="stroke: rgb(252,134,29); stroke-width: 0; stroke-dasharray: none; stroke-linecap: butt; stroke-dashoffset: 0; stroke-linejoin: miter; stroke-miterlimit: 4; fill: rgb(167,87,15); fill-rule: nonzero; opacity: 0.71;" vector-effect="non-scaling-stroke"  transform=" translate(0, 0)" d="M -40.32258 -40.32258 L 40.32258 -40.32258 L 40.32258 40.32258 L -40.32258 40.32258 z" stroke-linecap="round" />
</g>
		<g transform="matrix(0.1139458625 0.0437397186 -0.0343669218 0.089528892 -22.1074541968 9.2746952987)" id="3gM16qVr14-3cWnXSF9fc"  >
<path style="stroke: rgb(252,134,29); stroke-width: 0; stroke-dasharray: none; stroke-linecap: butt; stroke-dashoffset: 0; stroke-linejoin: miter; stroke-miterlimit: 4; fill: rgb(167,87,15); fill-rule: nonzero; opacity: 0.71;" vector-effect="non-scaling-stroke"  transform=" translate(0, 0)" d="M -40.32258 -40.32258 L 40.32258 -40.32258 L 40.32258 40.32258 L -40.32258 40.32258 z" stroke-linecap="round" />
</g>
		<g transform="matrix(0.1126510183 0.0624434791 -0.0490627336 0.0885115144 -21.3206483776 -5.5868947998)" id="AUbqbH20UHI381gkt32gR"  >
<path style="stroke: rgb(252,134,29); stroke-width: 0; stroke-dasharray: none; stroke-linecap: butt; stroke-dashoffset: 0; stroke-linejoin: miter; stroke-miterlimit: 4; fill: rgb(167,87,15); fill-rule: nonzero; opacity: 0.71;" vector-effect="non-scaling-stroke"  transform=" translate(0, 0)" d="M -40.32258 -40.32258 L 40.32258 -40.32258 L 40.32258 40.32258 L -40.32258 40.32258 z" stroke-linecap="round" />
</g>
		<g transform="matrix(0.1376921414 -0.1000391965 0.0646563778 0.0889918694 27.5942486876 29.1975836334)" id="WOc-OuCW5SlHu_oJLsyy3"  >
<path style="stroke: rgb(252,134,29); stroke-width: 0; stroke-dasharray: none; stroke-linecap: butt; stroke-dashoffset: 0; stroke-linejoin: miter; stroke-miterlimit: 4; fill: rgb(167,87,15); fill-rule: nonzero; opacity: 0.71;" vector-effect="non-scaling-stroke"  transform=" translate(0, 0)" d="M -40.32258 -40.32258 L 40.32258 -40.32258 L 40.32258 40.32258 L -40.32258 40.32258 z" stroke-linecap="round" />
</g>
		<g transform="matrix(0.2728236181 0.0629862952 -0.024744616 0.1071807071 -13.0719186635 35.3306451613)" id="dGcgf7vIu_n8Ve0mWBHwD"  >
<path style="stroke: rgb(252,134,29); stroke-width: 0; stroke-dasharray: none; stroke-linecap: butt; stroke-dashoffset: 0; stroke-linejoin: miter; stroke-miterlimit: 4; fill: rgb(167,87,15); fill-rule: nonzero; opacity: 0.5;" vector-effect="non-scaling-stroke"  transform=" translate(0, 0)" d="M -40.32258 -40.32258 L 40.32258 -40.32258 L 40.32258 40.32258 L -40.32258 40.32258 z" stroke-linecap="round" />
</g>
		<g transform="matrix(1 0 0 1 5.1500712747 -27.6693531452)" id="ucd-RcPAQP0CnGGEHvHWN"  >
<g style="" vector-effect="non-scaling-stroke"   >
		<g transform="matrix(1.000288051 0 0 1 0 0.7784680456)" id="915EuS43K1Ug-xftFXStg"  >
<path style="stroke: rgb(0,0,0); stroke-width: 1; stroke-dasharray: none; stroke-linecap: butt; stroke-dashoffset: 0; stroke-linejoin: miter; stroke-miterlimit: 4; fill: rgb(252,134,29); fill-rule: nonzero; opacity: 1;" vector-effect="non-scaling-stroke"  transform=" translate(5.556e-7, 3.64e-7)" d="M -26.38889 -7.38331 C -17.9366 -9.37208 -12.16971 -10.12865 -5.0832000000000015 -10.85377 L -5.0832000000000015 -10.85377 C 3.7219799999999985 -11.754750000000001 12.617359999999998 -10.6942 20.96415 -7.748270000000001 L 21.99821 -7.383310000000001 L 32.482079999999996 -2.738150000000001 L 32.482079999999996 4.131669999999999 L 32.482079999999996 4.131669999999999 C 32.482079999999996 5.542119999999999 31.539369999999995 6.778489999999999 30.179519999999997 7.151479999999999 L 15.546599999999996 11.16508 L 2.6433699999999956 11.16508 L -6.727600000000004 11.16508 L -8.052010000000005 11.16508 L -8.052010000000005 11.16508 C -14.073800000000006 11.16508 -20.011140000000005 9.74803 -25.384220000000006 7.028429999999999 L -26.388890000000007 6.519909999999999 C -26.388890000000007 6.519909999999999 -40.09857000000001 -4.15751 -26.388890000000007 -7.383320000000001 z" stroke-linecap="round" />
</g>
		<g transform="matrix(1 0 0 0.4780207308 -0.6665427693 6.5057219661)" id="w6tWQ1L4xBSWR6TSPE1AB"  >
<path style="stroke: rgb(0,0,0); stroke-width: 1; stroke-dasharray: none; stroke-linecap: butt; stroke-dashoffset: 0; stroke-linejoin: miter; stroke-miterlimit: 4; fill: rgb(255,255,255); fill-opacity: 0; fill-rule: nonzero; opacity: 0.33;" vector-effect="non-scaling-stroke"  transform=" translate(0, 0.000005)" d="M -27.26613 -3.37903 L -13.25 3.37903 L 3.37903 3.37903 L 22.73387 0.15322000000000013 L 27.26613 -3.37904" stroke-linecap="round" />
</g>
		<g transform="matrix(1 0 0 -0.4780207308 1.662114595 -1.3367807345)" id="dPqEytyEJVgHzeQ6fPOoL"  >
<path style="stroke: rgb(0,0,0); stroke-width: 1; stroke-dasharray: none; stroke-linecap: butt; stroke-dashoffset: 0; stroke-linejoin: miter; stroke-miterlimit: 4; fill: rgb(255,255,255); fill-opacity: 0; fill-rule: nonzero; opacity: 0.3;" vector-effect="non-scaling-stroke"  transform=" translate(0, 0.000005)" d="M -27.26613 -3.37903 L -13.25 3.37903 L 3.37903 3.37903 L 22.73387 0.15322000000000013 L 27.26613 -3.37904" stroke-linecap="round" />
</g>
		<g transform="matrix(1 0 0 1 13.1098156353 -11.9435466935)" id="35RkteZcE8D2C7rs67Alr"  >
<path style="stroke: rgb(0,0,0); stroke-width: 1; stroke-dasharray: none; stroke-linecap: butt; stroke-dashoffset: 0; stroke-linejoin: miter; stroke-miterlimit: 4; fill: rgb(255,255,255); fill-opacity: 0; fill-rule: nonzero; opacity: 1;" vector-effect="non-scaling-stroke"  transform=" translate(0, 0)" d="M 0 0 z" stroke-linecap="round" />
</g>
</g>
</g>
</g>
</g>
<g transform="matrix(-0.6193305869 0 0 0.7728312861 276.5434991996 62.2009121554)" id="GdVPh35lBoOwdEgwXwz0s"  >
<path style="stroke: rgb(0,0,0); stroke-width: 1; stroke-dasharray: none; stroke-linecap: butt; stroke-dashoffset: 0; stroke-linejoin: miter; stroke-miterlimit: 4; fill: rgb(252,134,29); fill-rule: nonzero; opacity: 1;" vector-effect="non-scaling-stroke"  transform=" translate(-0.00001, 2.467e-7)" d="M -35.88037 21.64728 L -31.19545 4.161739999999998 L -31.19545 4.161739999999998 C -28.63824 -5.382540000000002 -21.52211 -13.746010000000002 -11.36916 -19.139760000000003 L -11.36916 -19.139760000000003 L -11.36916 -19.139760000000003 C -4.90408 -22.574330000000003 3.5299899999999997 -22.47267 9.863239999999998 -18.883830000000003 L 13.055599999999998 -17.074830000000002 L 13.055599999999998 -17.074830000000002 C 20.36189 -12.934600000000003 25.981319999999997 -7.158750000000003 29.209999999999997 -0.4707700000000017 L 35.88039 13.346459999999999 z" stroke-linecap="round" />
</g>
<g transform="matrix(0.059507198 0.0916330492 -0.0961064454 0.0624122554 369.5451855355 176.9076580386)" id="98Q4hwXON_1qeE84RCtee"  >
<path style="stroke: rgb(0,0,0); stroke-width: 1; stroke-dasharray: none; stroke-linecap: butt; stroke-dashoffset: 0; stroke-linejoin: miter; stroke-miterlimit: 4; fill: rgb(21,27,158); fill-rule: nonzero; opacity: 1;" vector-effect="non-scaling-stroke"  transform=" translate(-0.000015, -0.00001)" d="M 15.72581 168.14516 L 15.72581 168.14516 L 15.72581 168.14516 C 56.429919999999996 163.67764 91.23843 138.18487 106.26111999999999 101.83966000000001 L 106.85484999999998 100.40323000000001 L 118.14516999999998 47.983880000000006 L 147.34793 -40.98265 L 147.34793 -40.98265 C 150.97664 -52.03756 152.82259 -63.553979999999996 152.82259 -75.13764 L 152.82259 -83.46773 L 152.82259 -83.46773 L 152.82259 -83.46773 C 145.63331 -87.06237 137.18517 -87.59141 129.56454 -84.92419000000001 L 129.56454 -84.92419000000001 L 129.56454 -84.92419000000001 C 126.87450999999999 -83.98268000000002 124.61206999999999 -82.17779000000002 123.16551999999999 -79.81929000000001 L 88.30645999999999 -22.983860000000007 L 88.30645999999999 -99.59676 L 84.42258999999999 -122.89999 L 84.42258999999999 -122.89999 C 82.75038999999998 -132.93317 77.91714999999999 -142.24413 70.56452999999999 -149.59676000000002 L 70.56452999999999 -149.59676000000002 L 70.56452999999999 -149.59676000000002 L 70.56452999999999 -149.59676000000002 C 63.96325999999999 -149.59676000000002 57.74568999999999 -146.63913000000002 53.775729999999996 -141.61052 L 53.775729999999996 -141.61052 L 53.775729999999996 -141.61052 C 49.936569999999996 -136.74759 46.89073 -131.3591 44.74149 -125.62780000000001 L 42.20542 -118.86495000000001 L 42.20542 -118.86495000000001 C 39.61779 -111.96461000000001 38.0119 -104.7647 37.43065 -97.45753 L 32.6613 -37.499990000000004 L 27.016139999999996 -83.46773 L 25.206239999999998 -106.99644 L 25.206239999999998 -106.99644 C 24.265549999999998 -119.22535 21.822509999999998 -131.3067 17.927249999999997 -142.99247 L 15.725819999999997 -149.59676 L -0.42211000000000176 -168.14515 L -0.42211000000000176 -168.14515 L -0.42211000000000176 -168.14515 C -7.933040000000002 -168.14515 -14.911570000000001 -164.44738 -18.87775 -158.3659 L -18.87775 -158.3659 L -18.87775 -158.3659 C -22.657989999999998 -152.56954000000002 -25.284489999999998 -146.15809000000002 -26.625439999999998 -139.45332000000002 L -27.90759 -133.04259000000002 L -27.90759 -133.04259000000002 C -28.92391 -127.96099000000002 -29.43546 -122.79935000000002 -29.43546 -117.62619000000002 L -29.43546 -37.499990000000025 L -39.11288 -57.661280000000026 L -51.209649999999996 -83.46773000000003 L -65.39889 -102.59236000000003 L -65.39889 -102.59236000000003 C -68.29921999999999 -106.50150000000002 -71.55923 -110.15635000000003 -75.14023999999999 -113.51355000000002 L -75.14023999999999 -113.51355000000002 L -75.14023999999999 -113.51355000000002 C -80.08375 -118.14809000000002 -86.10938999999999 -121.59895000000003 -92.72269 -123.58294000000002 L -94.37965 -124.08003000000002 L -94.37965 -124.08003000000002 C -96.87265 -124.82793000000002 -99.55073 -123.62888000000002 -100.53931 -121.32219000000002 L -102.52812 -116.68164000000002 L -102.52812 -116.68164000000002 C -104.85274 -111.25754000000002 -106.04836 -105.45403000000002 -106.04836 -99.59456000000002 L -106.04836 -93.14516000000002 L -56.04836 27.822579999999988 L -69.75804000000001 21.37096999999999 L -70.28688000000001 20.67686999999999 L -70.28688000000001 20.67686999999999 C -78.50559000000001 9.88981999999999 -88.07787000000002 0.10220999999998881 -98.7903 -8.46774000000001 L -98.7903 -8.46774000000001 L -109.76147 -10.46250000000001 L -109.76147 -10.46250000000001 C -119.80524 -12.28864000000001 -130.2011 -10.374400000000009 -138.80943 -5.113750000000009 L -138.80943 -5.113750000000009 L -138.80943 -5.113750000000009 C -144.22807 -1.8023600000000095 -148.31179 3.16009999999999 -150.39596 8.96600999999999 L -152.82256 15.72581999999999 L -152.82256 15.72581999999999 L -152.82256 15.72581999999999 C -149.09354000000002 23.71656999999999 -143.79598000000001 30.95353999999999 -137.21538 37.04668999999999 L -125.40321000000002 47.98387999999999 L -98.79031000000002 76.20969 L -73.79031000000002 115.72582 L -51.20966000000002 143.14517 L -18.95160000000002 160.88711 C -18.95160000000002 160.88711 -39.11289000000002 167.33872 15.725819999999977 168.14517 z" stroke-linecap="round" />
</g>
<g transform="matrix(1 0 0 1 468.2258971047 177.4076580386)" id="QpuWCUMQeJTS2WPaAX1Qv"  >
<path style="stroke: rgb(0,0,0); stroke-width: 1; stroke-dasharray: none; stroke-linecap: butt; stroke-dashoffset: 0; stroke-linejoin: miter; stroke-miterlimit: 4; fill: rgb(255,255,255); fill-opacity: 0; fill-rule: nonzero; opacity: 1;" vector-effect="non-scaling-stroke"  transform=" translate(0, 0)" d="M 0 0 z" stroke-linecap="round" />
</g>
<g transform="matrix(1 0 0 1 457.5362318854 430.9154401398)" id="daTXrgzUvLXtZJGFsDzGw"  >
<path style="stroke: rgb(0,0,0); stroke-width: 1; stroke-dasharray: none; stroke-linecap: butt; stroke-dashoffset: 0; stroke-linejoin: miter; stroke-miterlimit: 4; fill: rgb(255,255,255); fill-opacity: 0; fill-rule: nonzero; opacity: 1;" vector-effect="non-scaling-stroke"  transform=" translate(0, 0)" d="M 0 0 z" stroke-linecap="round" />
</g>
<g transform="matrix(1 0 0 1 154.7816688297 166.6164777533)" id="rbnnF10aqJuQW4Io0oY6m"  >
<path style="stroke: rgb(0,0,0); stroke-width: 1; stroke-dasharray: none; stroke-linecap: butt; stroke-dashoffset: 0; stroke-linejoin: miter; stroke-miterlimit: 4; fill: rgb(255,255,255); fill-opacity: 0; fill-rule: nonzero; opacity: 1;" vector-effect="non-scaling-stroke"  transform=" translate(0, 0)" d="M 0 0 z" stroke-linecap="round" />
</g>
<g transform="matrix(1 0 0 1 486.9082125618 415.7971014492)" id="Tmn-v_r3AqD-tnvnhlmlJ"  >
<path style="stroke: rgb(0,0,0); stroke-width: 1; stroke-dasharray: none; stroke-linecap: butt; stroke-dashoffset: 0; stroke-linejoin: miter; stroke-miterlimit: 4; fill: rgb(255,255,255); fill-opacity: 0; fill-rule: nonzero; opacity: 1;" vector-effect="non-scaling-stroke"  transform=" translate(0, 0)" d="M 0 0" stroke-linecap="round" />
</g>
<g transform="matrix(1 0 0 1 188.0609688128 79.8351875682)" id="nI_aDRQ7WPraSdLh3xRrA"  >
<g style="" vector-effect="non-scaling-stroke"   >
		<g transform="matrix(0.1487041359 0 0 0.1715787987 0 0)" id="2dbzssg1Gtw8ZuDtzRHQH"  >
<path style="stroke: rgb(129,109,223); stroke-width: 1; stroke-dasharray: none; stroke-linecap: butt; stroke-dashoffset: 0; stroke-linejoin: miter; stroke-miterlimit: 4; fill: rgb(30,45,165); fill-rule: nonzero; opacity: 1;" vector-effect="non-scaling-stroke"  transform=" translate(0, 0)" d="M 0 -38.64734 C 21.33333 -38.64734 38.64734 -21.33333 38.64734 0 C 38.64734 21.33333 21.33333 38.64734 0 38.64734 C -21.33333 38.64734 -38.64734 21.33333 -38.64734 0 C -38.64734 -21.33333 -21.33333 -38.64734 0 -38.64734 z" stroke-linecap="round" />
</g>
		<g transform="matrix(0.0704181602 0 0 0.0812503517 3.0255449514 0)" id="JfTG3VZJc1sKDYSQvf7rz"  >
<path style="stroke: rgb(0,0,0); stroke-width: 1; stroke-dasharray: none; stroke-linecap: butt; stroke-dashoffset: 0; stroke-linejoin: miter; stroke-miterlimit: 4; fill: rgb(255,255,255); fill-rule: nonzero; opacity: 1;" vector-effect="non-scaling-stroke"  transform=" translate(0, 0)" d="M 0 -38.64734 C 21.33333 -38.64734 38.64734 -21.33333 38.64734 0 C 38.64734 21.33333 21.33333 38.64734 0 38.64734 C -21.33333 38.64734 -38.64734 21.33333 -38.64734 0 C -38.64734 -21.33333 -21.33333 -38.64734 0 -38.64734 z" stroke-linecap="round" />
</g>
</g>
</g>
<g transform="matrix(1 0 0 1 178.854301774 436.3959848869)" id="iiHZYN_dqIGpA238rzaRw"  >
<path style="stroke: rgb(0,0,0); stroke-width: 1; stroke-dasharray: none; stroke-linecap: butt; stroke-dashoffset: 0; stroke-linejoin: miter; stroke-miterlimit: 4; fill: rgb(255,255,255); fill-opacity: 0; fill-rule: nonzero; opacity: 1;" vector-effect="non-scaling-stroke"  transform=" translate(0, 0)" d="M 0 0 z" stroke-linecap="round" />
</g>
<g transform="matrix(0.7384980883 0 0 1 248.4518692912 209.2811988947)" id="HKSrssJFn0s0dmcouEZMK"  >
<path style="stroke: rgb(0,0,0); stroke-width: 1; stroke-dasharray: none; stroke-linecap: butt; stroke-dashoffset: 0; stroke-linejoin: miter; stroke-miterlimit: 4; fill: rgb(255,255,255); fill-opacity: 0; fill-rule: nonzero; opacity: 1;" vector-effect="non-scaling-stroke"  transform=" translate(0.000005, -0.000005)" d="M -146.09598 22.8275 L -101.81372999999999 22.8275 C -67.41063 22.8275 -33.8283 15.06709 -5.561519999999987 0.5849599999999988 L -5.561519999999987 0.5849599999999988 L -4.026009999999987 -0.25273000000000123 L -4.026009999999987 -0.25273000000000123 C 22.85081000000001 -14.91529 55.38551000000002 -22.82749 88.80059000000001 -22.82749 L 146.09597000000002 -22.82749" stroke-linecap="round" />
</g>
<g transform="matrix(1 0 0 1 202.456672556 431.4154401398)" id="OpRl88le5ZE-rtRu4_Chs"  >
<path style="stroke: rgb(0,0,0); stroke-width: 1; stroke-dasharray: none; stroke-linecap: butt; stroke-dashoffset: 0; stroke-linejoin: miter; stroke-miterlimit: 4; fill: rgb(255,255,255); fill-opacity: 0; fill-rule: nonzero; opacity: 1;" vector-effect="non-scaling-stroke"  transform=" translate(0, 0)" d="M 0 0" stroke-linecap="round" />
</g>
</svg>