<?xml version="1.0" encoding="UTF-8"?>
<!DOCTYPE svg PUBLIC "-//W3C//DTD SVG 1.1//EN" "http://www.w3.org/Graphics/SVG/1.1/DTD/svg11.dtd">
<svg version="1.1" xmlns="http://www.w3.org/2000/svg" xmlns:xlink="http://www.w3.org/1999/xlink" x="0" y="0" width="1600" height="1200" viewBox="0, 0, 1600, 1200">
  <g id="レイヤー_1">
    <g>
      <path d="M1561.884,996.565 C1560.548,996.565 1559.211,996.062 1558.182,995.052 C1351.496,792.303 1080.619,765.161 737.678,730.795 C711.749,728.198 684.938,725.511 657.957,722.726 C522.123,708.704 406.288,678.315 313.672,632.403 C239.315,595.544 179.647,548.646 136.324,493.014 C97.68,443.388 79.477,395.859 71.011,364.726 C61.79,330.814 61.765,309.021 61.769,308.102 C61.78,305.19 64.144,303.001 67.054,303.001 L67.075,303.001 C69.994,303.001 72.352,305.222 72.341,308.142 C72.342,308.553 72.446,330.065 81.39,362.679 C89.674,392.886 107.458,438.97 145.14,487.167 C211.887,572.538 355.225,680.866 659.043,712.229 C686.008,715.013 712.811,717.688 738.732,720.286 C913.422,737.792 1064.29,752.904 1201.817,789.654 C1353.788,830.264 1469.378,893.132 1565.586,987.508 C1567.67,989.552 1567.702,992.897 1565.657,994.982 C1564.622,996.036 1563.253,996.565 1561.884,996.565" fill="#030000"/>
      <path d="M1562.164,954.846 C1560.831,954.846 1559.498,954.346 1558.47,953.341 C1359.338,758.747 1104.218,726.97 781.224,686.739 C756.997,683.721 731.946,680.6 706.772,677.389 C583.03,661.601 476.668,631.193 390.643,587.01 C321.596,551.547 265.401,507.176 223.621,455.128 C186.351,408.701 167.693,364.631 158.603,335.836 C148.696,304.451 147.67,284.238 147.631,283.392 C147.497,280.476 149.753,278.003 152.669,277.869 C155.581,277.726 158.056,279.989 158.193,282.902 C158.23,283.691 162.774,362.781 232.354,449.117 C296.724,528.991 431.516,631.611 708.11,666.901 C733.268,670.111 758.311,673.23 782.53,676.246 C939.643,695.817 1088.043,714.301 1218.433,751.967 C1362.84,793.683 1473.237,855.269 1565.858,945.779 C1567.947,947.82 1567.985,951.166 1565.945,953.254 C1564.909,954.315 1563.537,954.846 1562.164,954.846" fill="#030000"/>
      <path d="M1558.693,907.914 C1557.364,907.914 1556.034,907.416 1555.005,906.416 C1363.845,720.358 1123.911,683.819 820.144,637.56 C797.542,634.117 774.171,630.559 750.721,626.917 C638.21,609.445 540.757,579.077 461.069,536.654 C397.124,502.612 344.396,460.772 304.348,412.295 C235.886,329.425 228.356,256.857 228.069,253.809 C227.796,250.902 229.93,248.324 232.837,248.05 C235.745,247.783 238.321,249.911 238.595,252.817 C238.695,253.823 246.426,325.895 313,406.168 C374.7,480.564 501.006,577.44 752.343,616.47 C775.778,620.108 799.141,623.667 821.736,627.107 C968.941,649.525 1107.983,670.699 1231.382,709.296 C1368.361,752.141 1473.538,812.369 1562.381,898.84 C1564.472,900.876 1564.517,904.223 1562.481,906.315 C1561.445,907.38 1560.069,907.914 1558.693,907.914" fill="#030000"/>
      <path d="M1559.063,872.337 C1557.739,872.337 1556.411,871.841 1555.384,870.845 C1370.703,691.687 1131.896,650.243 855.378,602.255 C834.097,598.562 812.091,594.743 790.039,590.85 C686.224,572.523 595.693,542.503 520.964,501.624 C461.011,468.827 411.025,429.004 372.393,383.259 C306.351,305.056 296.542,237.531 296.156,234.694 C295.763,231.801 297.79,229.138 300.683,228.745 C303.572,228.358 306.24,230.378 306.633,233.272 C306.768,234.231 316.754,301.274 380.975,377.033 C440.489,447.24 560.087,539.52 791.876,580.438 C813.915,584.328 835.914,588.146 857.186,591.838 C996.289,615.979 1127.674,638.779 1245.293,677.756 C1376.095,721.101 1476.969,780.045 1562.745,863.257 C1564.84,865.289 1564.891,868.636 1562.859,870.732 C1561.823,871.8 1560.443,872.337 1559.063,872.337" fill="#030000"/>
      <path d="M1559.758,839.869 C1558.435,839.869 1557.111,839.376 1556.084,838.383 C1377.372,665.548 1150.355,621.696 887.489,570.919 C867.381,567.035 846.588,563.018 825.774,558.935 C729.435,540.039 644.898,510.462 574.511,471.024 C518.053,439.39 470.512,401.374 433.208,358.032 C369.435,283.936 357.853,220.755 357.391,218.102 C356.89,215.225 358.816,212.488 361.692,211.987 C364.567,211.486 367.306,213.412 367.807,216.289 C367.97,217.201 379.706,279.924 441.723,351.717 C499.189,418.241 612.818,506.392 827.809,548.56 C848.608,552.64 869.394,556.655 889.494,560.538 C1021.365,586.011 1145.923,610.071 1258.321,649.238 C1383.525,692.866 1480.476,750.554 1563.434,830.783 C1565.532,832.812 1565.588,836.159 1563.559,838.258 C1562.522,839.33 1561.141,839.869 1559.758,839.869" fill="#030000"/>
      <path d="M577.918,377.978 C532.948,328.936 523.742,246.549 521.857,214.657 L523.583,211.387 C526.007,206.797 524.25,201.113 519.661,198.69 L518.83,198.252 C514.24,195.829 508.556,197.586 506.133,202.175 L370.446,459.233 C358.897,435.823 330.474,417.448 295.645,413.771 C247.645,408.704 205.685,433.467 201.925,469.081 C198.166,504.694 234.03,537.672 282.032,542.738 C327.582,547.547 367.689,525.492 374.876,492.793 C375.204,492.37 375.506,491.919 375.765,491.43 L467.459,317.715 C477.147,333.443 502.543,374.033 521.981,399.457 C546.496,431.525 486.237,473.039 486.237,473.039 C520.38,468.747 634.568,439.759 577.918,377.978" fill="#030000"/>
      <path d="M1004.355,644.037 L1046.99,441.064 L1047.926,441.172 L1062.691,370.884 L785.181,343.579 L775.174,391.219 L770.417,413.868 L733.343,590.364 C720.446,578.631 700.115,572.009 677.929,574 C642.182,577.207 615.104,601.53 617.509,628.341 C619.914,655.152 650.741,674.265 686.488,671.058 C721.798,667.889 748.924,644.179 746.812,617.665 L789.238,415.684 L1028.167,439.247 L990.885,616.736 C977.989,605.003 957.802,598.411 935.617,600.402 C899.87,603.608 872.865,627.948 875.27,654.759 C877.676,681.57 908.391,700.659 944.14,697.452 C979.45,694.284 1006.467,670.55 1004.355,644.037" fill="#030000"/>
      <path d="M1292.766,808.57 L1348.968,548.384 C1350.058,543.343 1346.433,538.469 1341.39,537.38 L1337.739,536.591 C1332.697,535.502 1328.067,538.593 1326.978,543.634 L1276.694,776.424 C1261.115,762.484 1237.891,754.712 1211.913,756.894 C1170.055,760.409 1138.185,788.691 1140.82,820.084 C1143.456,851.479 1179.679,874.112 1221.537,870.596 C1262.883,867.125 1294.075,839.401 1292.766,808.57" fill="#030000"/>
    </g>
  </g>
</svg>
